<?xml version="1.0" encoding="iso-8859-1"?>
<!-- Generator: Adobe Illustrator 16.0.0, SVG Export Plug-In . SVG Version: 6.00 Build 0)  -->
<!DOCTYPE svg PUBLIC "-//W3C//DTD SVG 1.1//EN" "http://www.w3.org/Graphics/SVG/1.1/DTD/svg11.dtd">
<svg xmlns="http://www.w3.org/2000/svg" xmlns:xlink="http://www.w3.org/1999/xlink" version="1.1" id="Capa_1" x="0px" y="0px" width="512px" height="512px" viewBox="0 0 199.213 199.214" style="enable-background:new 0 0 199.213 199.214;" xml:space="preserve">
<g>
	<g>
		<path d="M71.209,40.171c-11.241,0.336-20.62-8.384-20.95-19.475c-0.332-11.088,8.51-20.351,19.75-20.687    C81.245-0.326,90.626,8.395,90.958,19.48C91.289,30.572,82.445,39.836,71.209,40.171z" fill="#b5b3a8"/>
		<path d="M48.636,56.892c-0.274-2.674,0.598-5.338,2.397-7.335c1.8-1.996,4.362-3.146,7.051-3.146h25.562    c4.153,0,7.628,3.155,8.027,7.289l6.432,66.479h37.982c3.858,0,7.562,1.535,10.289,4.268c2.728,2.73,4.257,6.437,4.251,10.295    l-0.081,53.627c-0.01,6.009-4.883,10.846-10.887,10.846c-0.007,0-0.015,0-0.021,0c-6.012,0-10.879-4.887-10.871-10.899    l0.066-43.052c0-0.888-0.353-1.74-0.979-2.368c-0.627-0.629-1.479-0.981-2.367-0.981H67.146c-6.014,0-10.254-4.589-10.889-10.882    C56.214,130.616,50.956,79.45,48.636,56.892z" fill="#b5b3a8"/>
	</g>
</g>
<g>
</g>
<g>
</g>
<g>
</g>
<g>
</g>
<g>
</g>
<g>
</g>
<g>
</g>
<g>
</g>
<g>
</g>
<g>
</g>
<g>
</g>
<g>
</g>
<g>
</g>
<g>
</g>
<g>
</g>
</svg>
