<?xml version="1.0" encoding="iso-8859-1"?>
<!-- Generator: Adobe Illustrator 16.0.0, SVG Export Plug-In . SVG Version: 6.00 Build 0)  -->
<!DOCTYPE svg PUBLIC "-//W3C//DTD SVG 1.1//EN" "http://www.w3.org/Graphics/SVG/1.1/DTD/svg11.dtd">
<svg xmlns="http://www.w3.org/2000/svg" xmlns:xlink="http://www.w3.org/1999/xlink" version="1.1" id="Capa_1" x="0px" y="0px" width="512px" height="512px" viewBox="0 0 199.216 199.216" style="enable-background:new 0 0 199.216 199.216;" xml:space="preserve">
<g>
	<g>
		<path d="M128.005,40.172c11.24,0.336,20.621-8.385,20.951-19.476c0.33-11.088-8.512-20.351-19.752-20.687    c-11.234-0.335-20.617,8.385-20.947,19.471C107.925,30.573,116.771,39.836,128.005,40.172z" fill="#d95e21"/>
		<path d="M150.579,56.893c0.274-2.674-0.599-5.338-2.397-7.334s-4.361-3.146-7.051-3.146H115.57c-4.153,0-7.629,3.155-8.028,7.289    l-6.431,66.48H63.127c-3.86,0-7.562,1.535-10.289,4.267c-2.727,2.732-4.257,6.437-4.251,10.297l0.081,53.626    c0.01,6.008,4.882,10.845,10.887,10.845c0.005,0,0.013,0,0.019,0c6.013,0,10.879-4.886,10.871-10.899l-0.065-43.052    c-0.001-0.888,0.351-1.74,0.979-2.369c0.627-0.628,1.479-0.98,2.366-0.98h58.345c6.013,0,10.254-4.589,10.889-10.882    C143,130.616,148.259,79.451,150.579,56.893z" fill="#d95e21"/>
	</g>
</g>
<g>
</g>
<g>
</g>
<g>
</g>
<g>
</g>
<g>
</g>
<g>
</g>
<g>
</g>
<g>
</g>
<g>
</g>
<g>
</g>
<g>
</g>
<g>
</g>
<g>
</g>
<g>
</g>
<g>
</g>
</svg>
